<svg width="189" height="30" viewBox="0 0 189 30" fill="none" xmlns="http://www.w3.org/2000/svg">
<g clip-path="url(#clip0_10_8)">
<path fill-rule="evenodd" clip-rule="evenodd" d="M188.28 -1.95317e-05C185.23 2.94998 181.93 3.31998 178.95 3.68998L177.49 3.86998C175.89 4.02998 174.53 4.12998 173 5.08998C171.47 5.96998 169.7 7.96998 168.49 9.43998C163.74 10.25 159.8 11.73 156.42 13.5C150.46 16.75 146.36 21.02 143.31 24.2L140.33 27.59L140.89 27.44C146.36 22.5 151.51 18.96 156.42 16.82C159.48 15.42 162.45 14.6 165.35 14.31H165.43L168.56 10.32C169.36 9.57998 170.57 9.28998 172.34 9.13998L175.48 8.91998L178.13 8.76998L179.02 8.68998C181.11 8.38998 182.88 7.94998 185.38 4.69998L188.68 0.26998L188.27 -0.0200195L188.28 -1.95317e-05ZM166.16 12.46C166.16 12.46 165.27 13.64 165.11 13.79C162.3 14.16 159.4 14.97 156.42 16.23C152.64 17.92 148.78 20.29 144.75 23.53C147.57 20.58 151.27 16.96 156.42 14.16C159.64 12.39 163.5 10.91 168.09 10.1C167.77 10.39 166.16 12.46 166.16 12.46ZM184.91 4.41998C182.58 7.51998 180.96 7.95998 178.95 8.18998L178.14 8.25998L175.41 8.40998L172.27 8.62998C170.98 8.77998 170.02 8.99998 169.21 9.43998C170.26 8.18998 171.87 6.33998 173.24 5.44998C174.69 4.56998 176.38 4.48998 177.42 4.33998L178.06 4.26998H178.14L179.03 4.19998C181.53 3.89998 184.34 3.45998 187.08 1.53998C186.11 2.86998 184.91 4.41998 184.91 4.41998Z" fill="#1D1D1B"/>
<path fill-rule="evenodd" clip-rule="evenodd" d="M140.66 27.3C150.23 20.51 155.3 17.86 166.64 17.71L164.22 20.96C163.74 21.84 163.01 21.84 162.29 21.77C154.16 21.7 148.53 22.29 138.72 29.23L140.65 27.31L140.66 27.3Z" fill="url(#paint0_linear_10_8)"/>
<path fill-rule="evenodd" clip-rule="evenodd" d="M141.17 26.74C141.17 26.74 141.17 26.77 141.17 26.78C150.51 18.54 158.46 14.82 165.33 14.02C165.97 13.28 168.09 10.54 168.73 9.65002C153.19 12.14 146.06 22.07 141.17 26.73V26.74Z" fill="url(#paint1_linear_10_8)"/>
<path fill-rule="evenodd" clip-rule="evenodd" d="M141.14 26.78C141.02 26.9 140.7 27.25 140.41 27.52C140.32 27.6 140.15 27.8 140.14 27.81C141.95 26.43 145.63 23.74 148.99 21.97C152.34 20.21 156.42 18.76 162.23 17.99C162.79 17.4 164.53 15.17 165.34 13.99C154.64 15.47 147.59 21.24 141.15 26.78H141.14Z" fill="url(#paint2_linear_10_8)"/>
<path fill-rule="evenodd" clip-rule="evenodd" d="M163.98 21.32C164.06 20.95 164.31 20.66 163.18 20C161.73 19.19 161.25 19.55 161.57 18.74C161.81 18.08 164.79 16.9 167.04 17.63C167.04 17.63 165.03 19.77 163.98 21.32Z" fill="url(#paint3_linear_10_8)"/>
<path fill-rule="evenodd" clip-rule="evenodd" d="M172.44 8.70001C170.18 8.92001 168.82 9.51002 167.93 10.55L164.91 14.56C165.63 13.97 167.6 13.65 169.78 13.65H170.34C170.66 13.65 170.99 13.58 171.3 13.58C174.44 13.51 178.7 13.06 181.28 10.19L185.02 5.20001L185.43 4.64001C182.13 8.77001 174.76 8.34001 172.42 8.71001L172.44 8.70001Z" fill="url(#paint4_linear_10_8)"/>
<path fill-rule="evenodd" clip-rule="evenodd" d="M178.07 4.05001C177.11 4.20001 174.94 4.13001 173.16 5.23001C171.31 6.34001 169.07 9.04001 168.02 10.44C168.99 9.41001 170.43 9.07001 172.36 8.84001C174.3 8.62001 177.03 8.69001 179.04 8.40001C180.97 8.18001 182.74 7.81001 185.16 4.57001L188.54 0.140015C185.08 3.46001 181.3 3.60001 178.08 4.05001H178.07Z" fill="url(#paint5_linear_10_8)"/>
<path fill-rule="evenodd" clip-rule="evenodd" d="M174.2 13.13C171.87 13.43 169.21 13.5 168.41 13.57C167.12 13.57 165.35 14.01 164.87 14.6C163.34 16.37 161.98 17.99 161.57 18.73C162.46 17.92 165.44 17.99 169.06 17.85C172.68 17.7 176.3 16.15 179.19 12.98L181.39 10.01C179.94 11.85 177.35 12.68 174.2 13.12V13.13Z" fill="url(#paint6_linear_10_8)"/>
<path fill-rule="evenodd" clip-rule="evenodd" d="M97.68 21.74L102.42 12.84H102.5L107.74 21.74H113.13L106.18 10.24H101.62L95.34 21.74H97.68Z" fill="white"/>
<path fill-rule="evenodd" clip-rule="evenodd" d="M23.15 16.7199L30.59 16.6399C30.51 18.2499 29.55 19.1399 29.05 19.5199C27.82 20.4199 26.06 20.4999 25.22 20.4999C23.99 20.4999 22.93 20.3399 21.84 19.7399C21.15 19.3599 20.36 18.7199 19.96 18.1799L19.63 17.7199L17.21 18.9999C17.92 19.7599 19.02 20.5099 20.19 21.0599C21.99 21.8799 23.64 22.0799 25.64 22.0799C27.77 22.0799 31.09 21.7999 33.49 20.1399C35.16 18.9799 35.93 17.3999 35.93 15.9999C35.93 14.5999 35.16 12.9999 33.49 11.8599C31.42 10.4199 28.4 9.91992 25.7 9.91992C23.95 9.91992 22.34 10.0799 20.71 10.6399C19.35 11.0799 18.29 11.6899 17.2 12.5599L19.62 13.8199L20.2 13.2399C20.68 12.7399 21.49 12.2799 22.23 11.9999C23.21 11.5999 24.23 11.4699 25.3 11.4699C27.45 11.4699 28.69 12.1099 29.38 12.7399C29.84 13.1399 30.44 13.8899 30.59 15.0599L23.15 14.9499V16.7099V16.7199Z" fill="white"/>
<path fill-rule="evenodd" clip-rule="evenodd" d="M121.69 11.3199C122.9 11.3199 124.28 11.5699 125.34 12.8199C126.2 13.8199 126.34 14.9799 126.34 15.9999C126.34 17.0199 126.2 18.1599 125.34 19.1799C124.28 20.4399 122.9 20.6799 121.69 20.6799C120.48 20.6799 119.1 20.4399 118.03 19.1799C117.18 18.1599 117.03 17.0199 117.03 15.9999C117.03 14.9799 117.18 13.8199 118.03 12.8199C119.09 11.5599 120.47 11.3199 121.69 11.3199ZM121.69 22.0899C123.95 22.0899 127.09 21.6099 129.2 20.1499C130.87 19.0099 131.66 17.3899 131.66 16.0099C131.66 14.6299 130.87 13.0099 129.2 11.8699C127.09 10.4099 123.94 9.92993 121.69 9.92993C119.44 9.92993 116.28 10.4099 114.15 11.8699C112.48 13.0099 111.71 14.6299 111.71 16.0099C111.71 17.3899 112.48 19.0099 114.15 20.1499C116.28 21.6099 119.45 22.0899 121.69 22.0899Z" fill="white"/>
<path fill-rule="evenodd" clip-rule="evenodd" d="M81.08 13.14C81.54 13 82.08 12.92 82.63 12.92H83.2V18.9H82.63C82.09 18.9 81.55 18.82 81.08 18.68C80.67 18.56 80.29 18.4 79.99 18.16C79.43 17.74 78.97 17.04 78.97 15.9C78.97 14.76 79.43 14.08 79.99 13.66C80.28 13.42 80.66 13.26 81.08 13.14ZM89.81 20.37C92.5 20.21 93.92 19.61 94.68 19.17C96.1 18.35 96.75 17.18 96.75 15.9C96.75 14.22 95.6 13.21 94.68 12.66C93.4 11.88 91.61 11.56 89.81 11.46C89.33 11.42 88.85 11.42 88.37 11.42H87.85V9.83997H83.03V11.42H82.53C82.05 11.42 81.57 11.42 81.09 11.46C79.27 11.56 77.48 11.88 76.22 12.66C75.3 13.22 74.15 14.22 74.15 15.9C74.15 17.18 74.8 18.34 76.22 19.17C76.95 19.61 78.37 20.21 81.09 20.37C81.53 20.39 82.01 20.41 82.53 20.41H83.03V22.09H87.85V20.41H88.37C88.89 20.41 89.37 20.39 89.81 20.37ZM89.81 13.14C90.23 13.26 90.6 13.42 90.9 13.66C91.46 14.08 91.92 14.78 91.92 15.9C91.92 17.02 91.46 17.74 90.9 18.16C90.6 18.4 90.23 18.56 89.81 18.68C89.33 18.82 88.81 18.9 88.24 18.9H87.7V12.92H88.24C88.81 12.92 89.33 13 89.81 13.14Z" fill="white"/>
<path fill-rule="evenodd" clip-rule="evenodd" d="M63.12 11.3199C64.31 11.3199 65.71 11.5699 66.78 12.8199C67.64 13.8199 67.78 14.9799 67.78 15.9999C67.78 17.0199 67.63 18.1599 66.78 19.1799C65.71 20.4399 64.31 20.6799 63.12 20.6799C61.93 20.6799 60.51 20.4399 59.45 19.1799C58.59 18.1599 58.46 17.0199 58.46 15.9999C58.46 14.9799 58.59 13.8199 59.45 12.8199C60.51 11.5599 61.91 11.3199 63.12 11.3199ZM63.12 22.0899C65.36 22.0899 68.53 21.6099 70.64 20.1499C72.29 19.0099 73.07 17.3899 73.07 16.0099C73.07 14.6299 72.29 13.0099 70.64 11.8699C68.53 10.4099 65.36 9.92993 63.12 9.92993C60.88 9.92993 57.69 10.4099 55.58 11.8699C53.91 13.0099 53.14 14.6299 53.14 16.0099C53.14 17.3899 53.91 19.0099 55.58 20.1499C57.69 21.6099 60.86 22.0899 63.12 22.0899Z" fill="white"/>
<path fill-rule="evenodd" clip-rule="evenodd" d="M44.91 17.52H45.81C48.13 17.52 49.74 17.28 50.89 16.64C52.33 15.82 52.66 14.7 52.66 13.82C52.66 12.94 52.33 11.84 50.89 11.06C49.74 10.44 48.2 10.24 45.61 10.24H37.36V21.75H42.18V17.53H44.92L44.91 17.52ZM44.91 12C45.49 12.02 46.25 12.12 46.79 12.44C47.52 12.88 47.64 13.48 47.64 13.84C47.64 14.2 47.54 14.84 46.74 15.3C46.2 15.64 45.53 15.74 44.9 15.78H42.16V11.98H44.39C44.54 11.98 44.7 11.98 44.89 12" fill="white"/>
<path fill-rule="evenodd" clip-rule="evenodd" d="M7.58 12.94L9.98 16.86H5.18L7.45 12.86H7.52L7.58 12.94ZM10.96 18.42L13.03 21.74H18.42L11.11 10.23H6.64L0 21.74H2.4L4.3 18.42H10.96Z" fill="white"/>
<path fill-rule="evenodd" clip-rule="evenodd" d="M130.91 11.98H136.09V21.74H140.91V11.98H146.11V10.24H130.91V11.98Z" fill="white"/>
</g>
<defs>
<linearGradient id="paint0_linear_10_8" x1="145.11" y1="15.98" x2="157.15" y2="27.88" gradientUnits="userSpaceOnUse">
<stop stop-color="#C00D0D"/>
<stop offset="0.3" stop-color="#E30613"/>
<stop offset="0.33" stop-color="#E51824"/>
<stop offset="0.4" stop-color="#EA4952"/>
<stop offset="0.5" stop-color="#F3979C"/>
<stop offset="0.53" stop-color="#F5ABB0"/>
<stop offset="0.57" stop-color="#EF7980"/>
<stop offset="0.61" stop-color="#EB5059"/>
<stop offset="0.65" stop-color="#E72F3A"/>
<stop offset="0.68" stop-color="#E51824"/>
<stop offset="0.72" stop-color="#E30A17"/>
<stop offset="0.75" stop-color="#E30613"/>
<stop offset="1" stop-color="#C00D0D"/>
</linearGradient>
<linearGradient id="paint1_linear_10_8" x1="139.96" y1="7.33002" x2="170.07" y2="29.21" gradientUnits="userSpaceOnUse">
<stop stop-color="white"/>
<stop offset="0.34" stop-color="white"/>
<stop offset="0.54" stop-color="white"/>
<stop offset="0.91" stop-color="#D3DAF0"/>
<stop offset="1" stop-color="#D3DAF0"/>
</linearGradient>
<linearGradient id="paint2_linear_10_8" x1="145.33" y1="13.6" x2="161.92" y2="29.97" gradientUnits="userSpaceOnUse">
<stop stop-color="#004A93"/>
<stop offset="0.13" stop-color="#004A93"/>
<stop offset="0.2" stop-color="#205DA1"/>
<stop offset="0.32" stop-color="#587FBA"/>
<stop offset="0.41" stop-color="#7B95CA"/>
<stop offset="0.46" stop-color="#899DD0"/>
<stop offset="0.48" stop-color="#7490C6"/>
<stop offset="0.56" stop-color="#356AAA"/>
<stop offset="0.61" stop-color="#0E5299"/>
<stop offset="0.64" stop-color="#004A93"/>
<stop offset="0.92" stop-color="#004A93"/>
</linearGradient>
<linearGradient id="paint3_linear_10_8" x1="161.31" y1="16.75" x2="167.7" y2="20.9" gradientUnits="userSpaceOnUse">
<stop stop-color="#C00D0D"/>
<stop offset="0.5" stop-color="#E30613"/>
<stop offset="1" stop-color="#F6B2B6"/>
</linearGradient>
<linearGradient id="paint4_linear_10_8" x1="166.61" y1="2.47001" x2="184.23" y2="17.12" gradientUnits="userSpaceOnUse">
<stop stop-color="#D3DDF2"/>
<stop offset="0.07" stop-color="#D3DDF2"/>
<stop offset="0.12" stop-color="#BACCE7"/>
<stop offset="0.21" stop-color="#7CA0CB"/>
<stop offset="0.34" stop-color="#195B9E"/>
<stop offset="0.37" stop-color="#004A93"/>
<stop offset="0.43" stop-color="#084F96"/>
<stop offset="0.52" stop-color="#1E5FA0"/>
<stop offset="0.63" stop-color="#4278B1"/>
<stop offset="0.75" stop-color="#759BC7"/>
<stop offset="0.89" stop-color="#B5C8E4"/>
<stop offset="0.95" stop-color="#D3DDF2"/>
<stop offset="1" stop-color="#D3DDF2"/>
</linearGradient>
<linearGradient id="paint5_linear_10_8" x1="170.16" y1="-1.44999" x2="186.89" y2="12.46" gradientUnits="userSpaceOnUse">
<stop stop-color="white"/>
<stop offset="0.17" stop-color="white"/>
<stop offset="0.25" stop-color="#F8F9FD"/>
<stop offset="0.36" stop-color="#E7EBF7"/>
<stop offset="0.39" stop-color="#E3E7F6"/>
<stop offset="0.45" stop-color="#ECEFF9"/>
<stop offset="0.58" stop-color="#FAFBFD"/>
<stop offset="0.7" stop-color="white"/>
<stop offset="1" stop-color="white"/>
</linearGradient>
<linearGradient id="paint6_linear_10_8" x1="163.79" y1="7.98001" x2="178.8" y2="20.46" gradientUnits="userSpaceOnUse">
<stop stop-color="#F6B2B6"/>
<stop offset="0.06" stop-color="#F6B2B6"/>
<stop offset="0.11" stop-color="#F07C83"/>
<stop offset="0.16" stop-color="#EA4953"/>
<stop offset="0.21" stop-color="#E62430"/>
<stop offset="0.25" stop-color="#E30E1A"/>
<stop offset="0.28" stop-color="#E30613"/>
<stop offset="0.41" stop-color="#CC0A0F"/>
<stop offset="0.52" stop-color="#C00D0D"/>
<stop offset="0.59" stop-color="#CC0A0F"/>
<stop offset="0.69" stop-color="#E30613"/>
<stop offset="0.89" stop-color="#F4A8A7"/>
<stop offset="1" stop-color="#F6B2B6"/>
</linearGradient>
<clipPath id="clip0_10_8">
<rect width="188.69" height="29.22" fill="white"/>
</clipPath>
</defs>
</svg>
