<svg width="143" height="54" viewBox="0 0 143 54" fill="none" xmlns="http://www.w3.org/2000/svg">
<g clip-path="url(#clip0_10_2)">
<path fill-rule="evenodd" clip-rule="evenodd" d="M32.184 16.5789V37.4212C37.7584 37.4212 42.4639 32.5837 42.4639 26.9427C42.4639 21.3016 37.8896 16.5953 32.184 16.5953" fill="white"/>
<path fill-rule="evenodd" clip-rule="evenodd" d="M16.2642 26.9427C16.2642 32.6001 20.9696 37.4212 26.544 37.4212V16.5789C20.8549 16.5789 16.2642 21.2032 16.2642 26.9263" fill="white"/>
<path fill-rule="evenodd" clip-rule="evenodd" d="M73.8937 42.1603H67.1388L57.6459 28.7956V42.1603H51.9896V11.6757H57.6459V24.8764L67.1388 11.6757H73.8937L62.3842 26.6474L73.8937 42.1603ZM32.184 42.8983H26.5276C17.8709 42.8983 10.6078 35.8797 10.6078 27.0574C10.6078 18.235 17.7561 11.1017 26.544 11.1017H32.2004C40.9883 11.1017 48.1203 18.2022 48.1203 27.0738C48.1203 35.9453 40.8571 42.9147 32.2004 42.9147M81.829 0H2.68883C1.21325 0 0 1.19708 0 2.67294V51.3271C0 52.7865 1.21325 54 2.68883 54H81.829C83.3046 54 84.5015 52.8029 84.5015 51.3271V2.67294C84.5015 1.19708 83.3046 0 81.829 0Z" fill="white"/>
<path d="M98.5851 24.0564C97.4866 24.0564 96.4701 23.7777 95.5355 23.2365C94.601 22.6954 93.8468 21.9574 93.2894 21.0227C92.7319 20.088 92.4532 19.0713 92.4532 17.9726C92.4532 16.8739 92.7319 15.8244 93.273 14.8897C93.814 13.955 94.5682 13.2171 95.5027 12.6595C96.4373 12.1184 97.4702 11.8396 98.5687 11.8396H100.733C101.831 11.8396 102.848 12.1184 103.799 12.6595C104.733 13.2007 105.487 13.955 106.029 14.8897C106.57 15.8244 106.848 16.8575 106.848 17.9726C106.848 19.0877 106.57 20.088 106.029 21.0227C105.471 21.9574 104.733 22.6954 103.799 23.2365C102.864 23.7777 101.848 24.0564 100.749 24.0564H98.5851ZM100.749 13.9386V21.941C101.454 21.941 102.094 21.7606 102.7 21.3835C103.307 21.0063 103.782 20.5144 104.143 19.9076C104.504 19.2845 104.684 18.6285 104.684 17.9234C104.684 17.2183 104.504 16.5295 104.159 15.9228C103.815 15.3161 103.323 14.8241 102.717 14.4797C102.11 14.119 101.454 13.955 100.749 13.955M98.5851 13.955C97.8801 13.955 97.2079 14.1354 96.6012 14.4797C95.9946 14.8405 95.5191 15.3161 95.1584 15.9228C94.8141 16.5295 94.6338 17.2019 94.6338 17.9234C94.6338 18.4482 94.7322 18.9729 94.9453 19.4485C95.1584 19.9404 95.4372 20.3668 95.7979 20.7439C96.1586 21.1211 96.5848 21.4163 97.0603 21.6295C97.5358 21.8426 98.044 21.941 98.5687 21.941V13.9386L98.5851 13.955ZM120.62 17.989C120.62 19.0877 120.342 20.1044 119.801 21.0391C119.26 21.9738 118.505 22.7118 117.571 23.2529C116.636 23.794 115.62 24.0728 114.538 24.0728C113.456 24.0728 112.439 23.794 111.505 23.2529C110.57 22.7118 109.816 21.9738 109.275 21.0391C108.717 20.1044 108.455 19.0877 108.455 17.989C108.455 16.8903 108.734 15.8408 109.275 14.9061C109.816 13.9714 110.57 13.2171 111.488 12.6759C112.423 12.1348 113.439 11.856 114.538 11.856C115.636 11.856 116.653 12.1348 117.587 12.6759C118.522 13.2171 119.26 13.9714 119.817 14.9061C120.358 15.8408 120.637 16.8739 120.637 17.989M110.619 17.9398C110.619 18.6449 110.8 19.3009 111.16 19.924C111.521 20.5472 111.996 21.0391 112.603 21.3999C113.21 21.7606 113.849 21.941 114.554 21.941C115.259 21.941 115.899 21.7606 116.505 21.3835C117.112 21.0063 117.587 20.5144 117.948 19.9076C118.309 19.2845 118.489 18.6285 118.489 17.9234C118.489 17.2183 118.309 16.5295 117.964 15.9228C117.62 15.3161 117.128 14.8241 116.538 14.4633C115.931 14.1026 115.276 13.9386 114.571 13.9386C113.866 13.9386 113.193 14.119 112.603 14.4633C111.996 14.8241 111.521 15.2997 111.177 15.9228C110.832 16.5295 110.652 17.2019 110.652 17.9234M122.752 12.0528H124.916V16.7427H129.195V12.0528H131.359V23.7613H129.195V18.8417H124.916V23.7613H122.752V12.0692V12.0528ZM133.605 21.6623L136.393 12.0528H142.262V21.6623H143.049V23.7613H132.884V21.6623H133.605ZM140.098 21.6623V14.1682H137.999L135.884 21.6623H140.098ZM95.4044 30.4846H97.5686V35.5517L101.208 30.4846H103.815L99.3884 36.2405L103.815 42.1931H101.208L97.5686 37.0604V42.1931H95.4044V30.4846ZM114.915 30.4846V42.1931H112.751V33.6659L107.75 42.1931H105.356V30.4846H107.521V39.0446L112.488 30.4846H114.931H114.915ZM117.505 30.4846H119.669V35.1746H123.949V30.4846H126.113V42.1931H123.949V37.2736H119.669V42.1931H117.505V30.4846ZM140.393 36.388C140.393 37.4867 140.114 38.5034 139.573 39.4381C139.016 40.3729 138.278 41.1108 137.344 41.6519C136.409 42.1931 135.393 42.4555 134.31 42.4555C133.228 42.4555 132.212 42.1767 131.277 41.6519C130.343 41.1108 129.589 40.3729 129.048 39.4381C128.49 38.5034 128.211 37.4867 128.211 36.388C128.211 35.2893 128.49 34.2562 129.031 33.3051C129.572 32.3704 130.326 31.6161 131.245 31.075C132.179 30.5338 133.196 30.255 134.31 30.255C135.425 30.255 136.425 30.5338 137.36 31.075C138.295 31.6161 139.032 32.3704 139.59 33.3051C140.131 34.2398 140.41 35.2729 140.41 36.388M130.392 36.3388C130.392 37.044 130.572 37.7163 130.933 38.3231C131.294 38.9462 131.769 39.4381 132.376 39.7989C132.982 40.1597 133.622 40.3401 134.327 40.3401C135.032 40.3401 135.671 40.1597 136.278 39.7825C136.885 39.4217 137.36 38.9298 137.721 38.3067C138.081 37.6835 138.262 37.0276 138.262 36.3224C138.262 35.6173 138.081 34.9286 137.737 34.3218C137.393 33.7151 136.901 33.2231 136.311 32.8624C135.704 32.518 135.048 32.3376 134.343 32.3376C133.638 32.3376 132.966 32.518 132.376 32.8624C131.769 33.2231 131.294 33.6987 130.949 34.3218C130.605 34.9286 130.425 35.6009 130.425 36.3224" fill="white"/>
</g>
<defs>
<clipPath id="clip0_10_2">
<rect width="143" height="54" fill="white"/>
</clipPath>
</defs>
</svg>
