<svg width="594" height="86" viewBox="0 0 594 86" fill="none" xmlns="http://www.w3.org/2000/svg">
<g opacity="0.95">
<path d="M79.4636 34.028L27.6482 1.93341C25.5215 0.580023 23.3947 0 21.4613 0C16.2411 0 12.9543 4.2535 12.9543 10.8271V75.0163C12.9543 81.5899 16.2411 85.8434 21.4613 85.8434C23.3947 85.8434 25.5215 85.2634 27.6482 83.91L79.4636 51.8154C83.1371 49.4953 85.0705 46.4018 85.0705 42.9217C85.2638 39.4416 83.1371 36.3481 79.4636 34.028ZM25.3281 80.2365C23.9747 81.0099 22.6213 81.5899 21.4613 81.5899C18.7545 81.5899 17.2078 79.0765 17.2078 75.0163V10.8271C17.2078 6.76694 18.7545 4.2535 21.4613 4.2535C22.6213 4.2535 23.9747 4.64018 25.3281 5.60689L77.3368 37.7015C79.6569 39.2482 81.0103 40.9883 81.0103 42.9217C81.0103 44.8551 79.6569 46.5952 77.3368 48.1419L25.3281 80.2365Z" fill="#B53895"/>
<path d="M65.9293 35.1882L13.1472 4.8337C11.2138 3.67365 9.28037 3.09363 7.5403 3.09363C2.90011 3.09363 0 6.76711 0 12.374V73.4698C0 79.0767 2.90011 82.7501 7.5403 82.7501C9.28037 82.7501 11.2138 82.1701 13.1472 81.0101L65.9293 50.4622C69.4094 48.5288 71.1495 45.822 71.1495 42.9219C71.1495 40.0218 69.4094 37.315 65.9293 35.1882Z" fill="#B53895"/>
<path d="M150.418 31.5135L138.818 61.4814H127.991L116.583 31.5135H126.637L133.598 52.201L140.364 31.7069H150.418V31.5135Z" fill="white"/>
<path d="M165.112 27.2611H155.058V19.9142H165.112V27.2611ZM164.919 61.4825H155.252V31.5146H164.919V61.4825Z" fill="white"/>
<path d="M202.62 61.4825H192.953V58.389C191.213 59.7424 189.666 60.7091 188.313 61.2892C186.96 61.8692 185.22 62.2559 183.286 62.2559C179.613 62.2559 176.713 60.9025 174.586 58.0024C172.459 55.1023 171.299 51.4288 171.299 46.5952C171.299 44.0818 171.686 41.7617 172.459 39.8283C173.232 37.8949 174.199 36.1548 175.553 34.8014C176.713 33.4481 178.259 32.4813 179.999 31.708C181.739 30.9346 183.48 30.5479 185.22 30.5479C186.96 30.5479 188.506 30.7413 189.666 31.128C190.827 31.5146 191.987 31.9013 193.147 32.6747V19.9142H202.814V61.4825H202.62ZM192.953 53.1688V38.4749C192.373 38.2816 191.6 37.8949 190.827 37.8949C190.053 37.7016 189.473 37.7016 188.7 37.7016C186.186 37.7016 184.253 38.4749 183.093 40.0217C181.933 41.5684 181.159 43.6951 181.159 46.5952C181.159 49.4954 181.739 51.6221 182.706 52.9755C183.673 54.3289 185.413 54.9089 187.54 54.9089C188.313 54.9089 189.28 54.7156 190.246 54.3289C191.407 54.1355 192.18 53.7489 192.953 53.1688Z" fill="white"/>
<path d="M240.709 48.3345H218.861C219.054 50.6546 219.828 52.3947 221.568 53.7481C223.115 54.9081 225.628 55.6815 228.722 55.6815C230.655 55.6815 232.782 55.2948 234.522 54.5214C236.455 53.7481 238.002 52.9747 238.969 52.2013H239.935V59.935C237.809 60.7083 235.682 61.4817 233.748 61.8684C231.815 62.2551 229.688 62.4484 227.368 62.4484C221.375 62.4484 216.734 61.095 213.641 58.3882C210.354 55.6815 208.807 51.8147 208.807 46.7878C208.807 41.7609 210.354 37.8941 213.254 34.994C216.348 32.0939 220.408 30.7405 225.628 30.7405C230.462 30.7405 234.135 31.9005 236.648 34.414C239.162 36.9274 240.322 40.4075 240.322 45.0477V48.3345H240.709ZM231.235 42.7276C231.235 40.7942 230.655 39.2475 229.688 38.2808C228.722 37.3141 227.368 36.7341 225.241 36.7341C223.308 36.7341 221.955 37.1207 220.601 38.0874C219.441 39.0541 218.668 40.6009 218.668 42.7276H231.235V42.7276Z" fill="white"/>
<path d="M278.409 46.5944C278.409 51.428 277.056 55.2948 274.156 58.1949C271.256 61.095 267.195 62.4484 262.169 62.4484C256.948 62.4484 252.888 61.095 250.181 58.1949C247.281 55.2948 245.928 51.428 245.928 46.5944C245.928 41.5676 247.281 37.7008 250.181 34.994C253.081 32.0939 257.142 30.7405 262.169 30.7405C267.389 30.7405 271.449 32.0939 274.349 34.994C276.862 37.7008 278.409 41.5676 278.409 46.5944ZM266.615 53.7481C267.195 52.9747 267.775 52.008 267.969 51.0413C268.355 49.8812 268.355 48.5279 268.355 46.5944C268.355 44.8544 268.162 43.3076 267.969 42.1476C267.582 40.9876 267.195 40.0208 266.615 39.2475C266.035 38.4741 265.455 38.0874 264.489 37.7008C263.715 37.3141 262.749 37.3141 261.975 37.3141C261.008 37.3141 260.235 37.5074 259.462 37.7008C258.688 37.8941 258.108 38.4741 257.335 39.2475C256.755 40.0208 256.368 40.7942 255.982 42.1476C255.595 43.3076 255.402 44.8544 255.402 46.7878C255.402 48.3345 255.595 49.8812 255.788 51.0413C256.175 52.2013 256.562 53.168 257.142 53.9414C257.722 54.7148 258.302 55.1014 259.268 55.4881C260.042 55.8748 261.008 55.8748 261.975 55.8748C262.749 55.8748 263.715 55.6815 264.489 55.4881C265.455 54.9081 266.035 54.5214 266.615 53.7481Z" fill="white"/>
<path d="M305.091 47.7548H284.79V40.0211H305.091V47.7548Z" fill="white"/>
<path d="M339.12 52.0077C339.12 55.1012 337.766 57.6146 335.059 59.548C332.353 61.4814 328.486 62.4481 323.652 62.4481C320.946 62.4481 318.625 62.2548 316.499 61.6748C314.372 61.0948 312.632 60.7081 311.279 59.9347V52.0077H312.245C312.632 52.3944 313.212 52.7811 313.985 53.1678C314.565 53.5545 315.532 53.9411 316.692 54.5212C317.659 54.9078 318.819 55.2945 319.979 55.4879C321.332 55.8745 322.492 55.8745 324.039 55.8745C325.972 55.8745 327.326 55.6812 328.293 55.2945C329.259 54.9078 329.646 54.3278 329.646 53.3611C329.646 52.5878 329.453 52.2011 328.873 51.8144C328.293 51.4277 327.326 51.2344 325.779 50.8477C325.006 50.6543 324.039 50.461 322.879 50.2677C321.719 50.0743 320.559 49.881 319.592 49.4943C316.885 48.7209 314.952 47.7542 313.599 46.2075C312.245 44.6608 311.665 42.9207 311.665 40.6006C311.665 37.7005 313.019 35.3804 315.725 33.447C318.432 31.5136 322.106 30.5469 326.939 30.5469C329.259 30.5469 331.386 30.7402 333.319 31.3202C335.446 31.7069 336.993 32.2869 338.153 32.6736V40.2139H337.38C336.026 39.2472 334.286 38.4739 332.546 37.8938C330.806 37.3138 328.873 36.9271 326.939 36.9271C325.392 36.9271 324.039 37.1205 323.072 37.5072C322.106 37.8938 321.526 38.4739 321.526 39.2472C321.526 40.0206 321.719 40.4073 322.299 40.7939C322.686 41.1806 323.846 41.5673 325.586 41.954C326.552 42.1473 327.519 42.3407 328.679 42.534C329.839 42.7274 330.999 42.9207 332.159 43.3074C334.673 43.8874 336.606 45.0475 337.766 46.4008C338.54 48.1409 339.12 49.881 339.12 52.0077Z" fill="white"/>
<path d="M375.467 61.4828H365.8V46.5955C365.8 45.4355 365.8 44.2754 365.607 42.922C365.413 41.762 365.22 40.7953 365.027 40.2153C364.64 39.6352 364.06 39.0552 363.48 38.8619C362.707 38.4752 361.933 38.4752 360.58 38.4752C359.806 38.4752 358.84 38.6685 357.873 38.8619C356.906 39.0552 355.94 39.6352 354.973 40.2153V61.4828H345.306V20.1078H354.973V34.8017C356.713 33.4483 358.26 32.4816 359.806 31.7082C361.353 30.9349 363.093 30.7415 365.027 30.7415C368.313 30.7415 370.827 31.7082 372.567 33.6417C374.307 35.5751 375.274 38.2818 375.274 42.1487V61.4828H375.467Z" fill="white"/>
<path d="M414.521 46.5944C414.521 51.428 413.168 55.2948 410.268 58.1949C407.368 61.095 403.307 62.4484 398.28 62.4484C393.254 62.4484 389 61.095 386.293 58.1949C383.393 55.2948 382.04 51.428 382.04 46.5944C382.04 41.5676 383.393 37.7008 386.293 34.994C389.193 32.0939 393.254 30.7405 398.28 30.7405C403.501 30.7405 407.561 32.0939 410.461 34.994C413.168 37.7008 414.521 41.5676 414.521 46.5944ZM402.727 53.7481C403.307 52.9747 403.887 52.008 404.081 51.0413C404.467 49.8812 404.467 48.5279 404.467 46.5944C404.467 44.8544 404.274 43.3076 404.081 42.1476C403.694 40.9876 403.307 40.0208 402.727 39.2475C402.147 38.4741 401.567 38.0874 400.601 37.7008C399.827 37.3141 398.86 37.3141 398.087 37.3141C397.12 37.3141 396.347 37.5074 395.574 37.7008C394.8 37.8941 394.22 38.4741 393.447 39.2475C392.867 40.0208 392.48 40.7942 392.094 42.1476C391.707 43.3076 391.514 44.8544 391.514 46.7878C391.514 48.3345 391.707 49.8812 391.9 51.0413C392.287 52.2013 392.674 53.168 393.254 53.9414C393.834 54.7148 394.414 55.1014 395.38 55.4881C396.154 55.8748 397.12 55.8748 398.087 55.8748C398.86 55.8748 399.827 55.6815 400.601 55.4881C401.567 54.9081 402.147 54.5214 402.727 53.7481Z" fill="white"/>
<path d="M452.223 46.2078C452.223 48.7212 451.837 50.8479 451.063 52.9747C450.29 54.9081 449.323 56.6482 448.163 58.0016C446.81 59.3549 445.456 60.515 443.91 61.095C442.363 61.8684 440.623 62.2551 438.69 62.2551C436.949 62.2551 435.596 62.0617 434.436 61.675C433.276 61.2884 432.116 60.7083 430.763 60.1283V72.5021H421.096V31.5138H430.763V34.8006C432.309 33.6406 433.663 32.6739 435.209 31.9005C436.756 31.1272 438.496 30.7405 440.43 30.7405C444.103 30.7405 447.003 32.0939 449.13 34.8006C451.257 37.5074 452.223 41.3742 452.223 46.2078ZM442.363 46.4011C442.363 43.501 441.783 41.3742 440.816 40.0208C439.85 38.6675 438.303 38.0874 436.176 38.0874C435.209 38.0874 434.436 38.2808 433.469 38.4741C432.503 38.6675 431.536 39.0541 430.763 39.6342V54.7148C431.343 54.9081 432.116 55.1014 432.889 55.1014C433.663 55.1014 434.243 55.2948 435.016 55.2948C437.529 55.2948 439.463 54.5214 440.623 53.168C441.783 51.428 442.363 49.3012 442.363 46.4011Z" fill="white"/>
<path d="M488.572 48.3345H466.724C466.917 50.6546 467.691 52.3947 469.431 53.7481C470.978 54.9081 473.491 55.6815 476.778 55.6815C478.711 55.6815 480.838 55.2948 482.578 54.5214C484.511 53.7481 486.058 52.9747 487.025 52.2013H488.185V59.935C486.058 60.7083 483.931 61.4817 481.998 61.8684C480.065 62.2551 477.938 62.4484 475.618 62.4484C469.624 62.4484 464.984 61.095 461.891 58.3882C458.604 55.6815 457.057 51.8147 457.057 46.7878C457.057 41.7609 458.604 37.8941 461.504 34.994C464.597 32.0939 468.658 30.7405 473.878 30.7405C478.711 30.7405 482.385 31.9005 484.898 34.414C487.412 36.9274 488.572 40.4075 488.572 45.0477V48.3345V48.3345ZM479.098 42.7276C479.098 40.7942 478.518 39.2475 477.551 38.2808C476.584 37.3141 475.231 36.7341 473.104 36.7341C471.171 36.7341 469.818 37.1207 468.464 38.0874C467.304 39.0541 466.531 40.6009 466.531 42.7276H479.098V42.7276Z" fill="white"/>
<path d="M516.993 40.7934H516.219C515.833 40.6001 515.253 40.6001 514.286 40.4067C513.319 40.4067 512.546 40.2134 511.966 40.2134C510.612 40.2134 509.452 40.2134 508.292 40.4067C507.326 40.6001 506.166 40.7934 505.005 41.3734V61.2876H495.338V31.513H505.005V35.9599C507.132 34.2198 508.872 32.8664 510.419 32.2864C511.966 31.7064 513.319 31.3197 514.673 31.3197C515.059 31.3197 515.446 31.3197 515.833 31.3197C516.219 31.3197 516.606 31.3197 516.993 31.3197V40.7934V40.7934Z" fill="white"/>
<path d="M528.207 61.4817H518.153V51.0413H528.014V61.4817H528.207Z" fill="white"/>
<path d="M558.56 40.7934H557.787C557.4 40.6001 556.82 40.6001 555.854 40.4067C554.887 40.4067 554.114 40.2134 553.534 40.2134C552.18 40.2134 551.02 40.2134 549.86 40.4067C548.893 40.6001 547.733 40.7934 546.573 41.3734V61.2876H536.906V31.513H546.573V35.9599C548.7 34.2198 550.44 32.8664 551.987 32.2864C553.534 31.7064 554.887 31.3197 556.24 31.3197C556.627 31.3197 557.014 31.3197 557.4 31.3197C557.787 31.3197 558.174 31.3197 558.56 31.3197V40.7934V40.7934Z" fill="white"/>
<path d="M593.363 61.4809H583.696V58.1941C581.956 59.5475 580.216 60.5142 578.862 61.2876C577.316 62.0609 575.576 62.2543 573.642 62.2543C570.355 62.2543 567.842 61.2876 566.102 59.3541C564.362 57.4207 563.395 54.714 563.395 51.0405V31.513H573.062V46.4003C573.062 47.947 573.062 49.1071 573.255 50.0738C573.449 51.0405 573.642 51.8138 574.029 52.5872C574.416 53.1672 574.802 53.7473 575.576 53.9406C576.349 54.3273 577.122 54.3273 578.476 54.3273C579.249 54.3273 580.216 54.1339 581.182 53.9406C582.149 53.5539 583.116 53.1672 584.083 52.5872V31.3197H593.75V61.4809H593.363Z" fill="white"/>
</g>
</svg>
