<?xml version="1.0" encoding="UTF-8"?> <svg xmlns="http://www.w3.org/2000/svg" xmlns:xlink="http://www.w3.org/1999/xlink" x="0px" y="0px" viewBox="0 0 2534.5 452.6" style="enable-background:new 0 0 2534.5 452.6;" xml:space="preserve"> <style type="text/css"> .st0{fill:#FFFFFF;} </style> <g id="Layer_3"> </g> <g id="Layer_1"> </g> <g id="Layer_2"> <g> <g> <polygon class="st0" points="270.5,6.4 181,246.5 157.1,246.5 68.1,6.4 0,6.4 124.8,331.8 211.3,331.8 336.1,6.4 "></polygon> <path class="st0" d="M368.1,169.1C368.1,75.5,437.2,0,537.2,0c100,0,169.1,75.5,169.1,169.1c0,93.1-69.1,169.1-169.1,169.1 C437.2,338.2,368.1,262.2,368.1,169.1z M642.1,169.1c0-62.2-44.1-111.7-104.9-111.7s-104.9,49.5-104.9,111.7 c0,61.8,44.1,111.7,104.9,111.7S642.1,230.8,642.1,169.1z"></path> <path class="st0" d="M1853.9,169.1C1853.9,75.5,1923,0,2023,0c100,0,169.1,75.5,169.1,169.1c0,93.1-69.1,169.1-169.1,169.1 C1923,338.2,1853.9,262.2,1853.9,169.1z M2127.8,169.1c0-62.2-44.1-111.7-104.9-111.7c-60.8,0-104.9,49.5-104.9,111.7 c0,61.8,44.1,111.7,104.9,111.7C2083.7,280.8,2127.8,230.8,2127.8,169.1z"></path> <path class="st0" d="M1120.9,169.1C1120.9,75.5,1190,0,1290,0c100,0,169.1,75.5,169.1,169.1c0,93.1-69.1,169.1-169.1,169.1 C1190,338.2,1120.9,262.2,1120.9,169.1z M1394.8,169.1c0-62.2-44.1-111.7-104.9-111.7s-104.9,49.5-104.9,111.7 c0,61.8,44.1,111.7,104.9,111.7S1394.8,230.8,1394.8,169.1z"></path> <path class="st0" d="M1691,157h-27.6l140.9,174.8h-73.1L1594.5,157v174.8h-64.2V6.4H1691c77.4,0,112.7,21.2,112.7,75.1 C1803.7,135.9,1768.4,157,1691,157z M1594.5,103.8h92.1c33.3,0,52.9,0.2,52.9-22.4c0-22.1-19.6-21.9-52.9-21.9h-92.1V103.8z"></path> <path class="st0" d="M2398.5,6.4c113.2,0,135.9,51,135.9,162.7c0,111.7-22.7,162.7-135.9,162.7h-137.6V6.4H2398.5z M2470.2,169.1 c0-87.1-10.9-105.4-82-105.4h-63.2v210.7h63.2C2459.3,274.5,2470.2,253.9,2470.2,169.1z"></path> <path class="st0" d="M918.3,6.4c113.2,0,135.9,51,135.9,162.7c0,111.7-22.7,162.7-135.9,162.7H780.7V6.4H918.3z M990,169.1 c0-87.1-10.9-105.4-82-105.4h-63.2v210.7h63.2C979.1,274.5,990,253.9,990,169.1z"></path> </g> <g> <path class="st0" d="M822.9,437.9h-11.2v14h-5.8v-35.3h17c8.3,0,12,4.9,12,10.6S831.2,437.9,822.9,437.9z M822.7,422h-10.9v10.5 h10.9c3.9,0,6.4-1.9,6.4-5.3S826.6,422,822.7,422z"></path> <path class="st0" d="M942.6,451.9h-5.8v-35.3h5.8V451.9z"></path> <path class="st0" d="M1050.6,434.3c0,7.4,5.3,13,12.3,13c4,0,7.2-1.8,9.2-4.6h6.4c-2.8,5.9-8.3,9.9-15.7,9.9 c-10.3,0-18.2-7.9-18.2-18.3c0-10.5,7.9-18.3,18.2-18.3c7.4,0,12.9,4,15.7,10h-6.4c-2-2.8-5.2-4.6-9.2-4.6 C1055.9,421.3,1050.6,426.8,1050.6,434.3z"></path> <path class="st0" d="M1207,416.6v5.4h-11.8v29.9h-5.8V422h-11.8v-5.4H1207z"></path> <path class="st0" d="M1307.8,416.6h5.8v20.5c0,6.6,3.7,10,9.6,10c5.9,0,9.6-3.4,9.6-10v-20.5h5.8v20.6c0,9.8-6.1,15.3-15.4,15.3 c-9.3,0-15.4-5.5-15.4-15.3V416.6z"></path> <path class="st0" d="M1462,437.7l10.8,14.2h-7.3l-10.7-14h-6.5v14h-5.8v-35.3h17c8.3,0,12,4.9,12,10.6 C1471.5,432.4,1468.6,436.8,1462,437.7z M1459.3,422h-10.9v10.5h10.9c3.9,0,6.4-1.9,6.4-5.3S1463.2,422,1459.3,422z"></path> <path class="st0" d="M1579.9,422v9.6h18.1v5.4h-18.1v9.6h18.5v5.4h-24.3v-35.3h24.3v5.4H1579.9z"></path> <path class="st0" d="M1704.7,442.6c1.6,3,5.2,4.6,9.5,4.6c4.9,0,8.3-2.1,8.3-5.2c0-2.9-2.1-4.4-6.7-4.9l-6.1-0.6 c-7.1-0.7-10.1-4.6-10.1-9.7c0-6.4,5.3-10.8,13.8-10.8c8.7,0,13.6,5.2,15.2,10h-6.2c-1.3-2.8-5-4.6-9.2-4.6 c-5.1,0-7.9,2.4-7.9,5.3c0,2.8,2.2,4.3,5.8,4.7l6.5,0.7c6.6,0.7,10.6,4.5,10.6,9.8c0,5.5-4.8,10.8-14.2,10.8 c-9.3,0-13.9-4.7-15.6-9.9H1704.7z"></path> </g> </g> </g> </svg> 