<svg width="200" height="36" viewBox="0 0 200 36" fill="none" xmlns="http://www.w3.org/2000/svg">
<g clip-path="url(#clip0_10_28)">
<path fill-rule="evenodd" clip-rule="evenodd" d="M173.873 23.5327V0H168.04V23.5828C168.04 25.7858 168.667 27.7886 168.667 27.7886H174.018C174.037 27.7684 174.017 27.4073 173.987 26.8491C173.942 26.0209 173.873 24.7585 173.873 23.5327ZM88.167 23.1831C86.3352 23.1831 84.8891 22.7825 83.925 21.9313C83.3465 21.4807 82.8645 20.93 82.5271 20.3291C82.0932 19.4779 82.045 18.5266 82.045 18.5266C82.045 18.5266 83.684 18.8771 87.6368 18.8771C93.7588 18.8771 97.6152 17.5252 97.6152 13.3194C97.6152 8.8632 93.9516 5.35833 87.9742 5.25819H87.685C85.9978 5.25819 84.4553 5.55861 83.0091 6.15944C81.6112 6.76028 80.406 7.56139 79.3455 8.61285C78.3814 9.61424 77.6102 10.8159 77.0317 12.2679C76.5015 13.77 76.2604 15.2721 76.2604 16.7742C76.2604 18.076 76.405 19.1775 76.6943 20.2791C76.7907 20.6795 76.9353 21.08 77.0798 21.4805C77.5619 22.8825 78.3333 24.0843 79.2973 25.1358C80.2614 26.1372 81.4666 26.8882 82.9127 27.4891C84.3588 28.0398 85.9496 28.2902 87.8778 28.2902C89.8542 28.2902 91.5896 28.0398 93.1321 27.5892C94.7229 27.1386 96.169 26.3875 97.567 25.3861L95.1567 21.1302C93.1321 22.4821 90.7701 23.1831 88.167 23.1831ZM25.3075 21.0314L30.0316 5.96051H36.1054L28.5372 27.7408H22.4152L18.0768 12.6198L13.6902 27.7408H7.61636L0 5.96051H6.12201L10.7979 21.0314L15.1845 5.96051H20.9691L25.3075 21.0314ZM42.949 18.9285H37.7911L41.6475 5.96051H48.2515L42.949 18.9285ZM91.8761 13.0189C91.8761 11.667 89.9479 10.3652 87.5859 10.3652C84.2597 10.3652 82.4761 12.8687 82.1869 14.4209H87.5859C90.7192 14.4209 91.8761 14.1204 91.8761 13.0189ZM190.552 23.1831C188.72 23.1831 187.274 22.7825 186.31 21.9313C185.731 21.4807 185.249 20.93 184.912 20.3291C184.478 19.4779 184.43 18.5266 184.43 18.5266C184.43 18.5266 186.069 18.8771 190.022 18.8771C196.192 18.8771 200 17.5252 200 13.3194C200 8.8632 196.336 5.35833 190.359 5.25819H190.118C188.431 5.25819 186.888 5.55861 185.442 6.15944C184.044 6.76028 182.839 7.56139 181.779 8.61285C180.814 9.61424 180.043 10.8159 179.465 12.2679C178.935 13.77 178.693 15.2721 178.693 16.7742C178.693 18.076 178.838 19.1775 179.127 20.2791C179.224 20.6796 179.368 21.0802 179.513 21.4807C179.995 22.8827 180.766 24.0843 181.73 25.1358C182.694 26.1372 183.9 26.8882 185.346 27.4891C186.792 28.0398 188.383 28.2902 190.311 28.2902C192.287 28.2902 194.023 28.0398 195.565 27.5892C197.156 27.1386 198.602 26.3875 200 25.3861L197.59 21.1302C195.517 22.4821 193.203 23.1831 190.552 23.1831ZM194.266 13.0189C194.266 11.667 192.338 10.3652 189.976 10.3652C186.65 10.3652 184.866 12.8687 184.577 14.4209H189.976C193.109 14.4209 194.266 14.1204 194.266 13.0189ZM119.307 16.4255C117.909 15.3741 116.029 14.6731 113.667 14.4228L109.57 13.9221C108.172 13.7218 107.497 13.171 107.497 12.2197C107.497 10.9179 108.751 10.3171 111.305 10.3171C113.812 10.3171 116.126 10.8678 118.15 12.0194L120.416 7.6133C117.909 6.11121 114.873 5.36017 111.402 5.36017C108.317 5.36017 105.955 6.01107 104.364 7.31288C102.725 8.61469 101.954 10.3171 101.954 12.47C101.954 14.4728 102.532 16.0751 103.689 17.1265C104.846 18.228 106.485 18.8789 108.51 19.0792L113.33 19.63C114.101 19.6801 114.728 19.8803 115.162 20.1307C115.596 20.4311 115.788 20.8317 115.788 21.3824C115.788 22.0333 115.403 22.534 114.632 22.9346C113.812 23.235 112.559 23.3852 111.064 23.3852C109.763 23.3852 108.461 23.235 107.112 22.9346C105.955 22.6342 104.75 22.1335 103.4 21.3824L101.231 25.7385C102.821 26.7399 104.364 27.4408 105.762 27.7413C107.208 28.1418 108.895 28.3421 110.872 28.3421C114.101 28.3421 116.704 27.6912 118.536 26.4394C120.368 25.1376 121.284 23.3852 121.284 21.0319C121.284 19.0292 120.657 17.477 119.307 16.4255ZM63.7257 5.50704C69.9441 5.50704 71.8723 10.0634 71.8723 12.7671V23.5321C71.8723 25.5349 72.0169 27.7379 72.0169 27.7379H66.6662C66.6662 27.7379 65.9913 25.7351 65.9913 23.5321V13.9187C65.9913 12.6169 65.0754 10.5641 62.1831 10.5641C59.8535 10.5641 57.6105 12.0477 56.6025 12.7144L56.6008 12.7155C56.5457 12.752 56.4943 12.786 56.4468 12.8172V27.788H50.614V6.00773H55.6755L56.1093 8.16072C57.9893 6.95905 60.6888 5.50704 63.7257 5.50704ZM153.436 21.6801L158.594 5.95828C158.594 5.95828 164.682 5.95828 164.716 5.90862L154.593 36H148.567L151.604 26.5869C151.604 26.5869 146.929 25.3352 145.241 20.2281C144.863 19.1145 144.175 16.8869 143.407 14.4C143.001 13.0852 142.573 11.6978 142.156 10.3644H132.853V19.5271C132.853 22.4312 136.613 23.0821 139.071 23.1822L137.239 28.0389C130.346 27.6885 127.02 25.235 127.02 20.3783V10.4145H123.067V6.00835H127.02V0H132.853V5.90821H146.929C147.81 8.75543 149 12.5664 149.827 15.213C150.221 16.4758 150.533 17.4736 150.688 17.975C151.267 19.7274 151.942 21.0292 153.436 21.6801Z" fill="white"/>
<path fill-rule="evenodd" clip-rule="evenodd" d="M41.6036 23.9991C42.0105 24.8074 42.1122 25.7166 41.8071 26.5753C41.5019 27.4846 40.9425 28.0907 40.1289 28.4948C39.2643 28.8989 38.3998 29 37.5353 28.6464C36.6708 28.3433 36.0097 27.8382 35.552 26.9794C35.0943 26.1712 35.0434 25.3125 35.3486 24.4538C35.6537 23.5445 36.2131 22.9384 37.0776 22.4837C37.9421 22.0796 38.8067 21.9786 39.6712 22.2817C40.4848 22.5848 41.146 23.1909 41.6036 23.9991Z" fill="#F55760"/>
</g>
<defs>
<clipPath id="clip0_10_28">
<rect width="200" height="36" fill="white"/>
</clipPath>
</defs>
</svg>
